# xmcd
#
# Track frame offsets:
#	150
#	9540
#	31528
#	40475
#	54920
#	87309
#	102602
#	124076
#	144136
#	159537
#	178031
#	195863
#	219461
#	234711
#
# Disc length: 3317 seconds
#
# Revision: 0
# Processed by: cddbd v1.4PL0 Copyright (c) Steve Scherf et al.
# Submitted via: dBpowerAMP V4.0
#
DISCID=b10cf30e
DTITLE=Hank Williams Jr. - Outdoor Lovin' Man
DYEAR=1900
DGENRE=Country
TTITLE0=Almeria Jam
TTITLE1=America Will Survive
TTITLE2=America Will Survice (Studio)
TTITLE3=Big Top Women
TTITLE4=Cross On The Highway
TTITLE5=Go Girl Go
TTITLE6=If The Good Lord's Willing (And The Creek Don't Rise)
TTITLE7=Last Pork Chop (Acoustic)
TTITLE8=Last Pork Chop
TTITLE9=Outdoor Lovin' Man
TTITLE10=Tee Tot Song
TTITLE11=The Cheatin' Hotel
TTITLE12=The "F" Word
TTITLE13=X-treme Country
EXTD=
EXTT0=
EXTT1=
EXTT2=
EXTT3=
EXTT4=
EXTT5=
EXTT6=
EXTT7=
EXTT8=
EXTT9=
EXTT10=
EXTT11=
EXTT12=
EXTT13=
PLAYORDER=
